{
  "accessors": [
    {
      "bufferView": 2,
      "componentType": 5126,
      "count": 8,
      "max": [
        -491.3982238769531,
        67.8432846069336,
        -77.22589874267578
      ],
      "min": [
        -491.3983459472656,
        -122.13471984863281,
        -134.05514526367188
      ],
      "type": "VEC3"
    },
    {
      "bufferView": 2,
      "byteOffset": 96,
      "componentType": 5126,
      "count": 8,
      "max": [
        -1.0,
        2.095999661833048e-06,
        1.0735278692663996e-06
      ],
      "min": [
        -1.0,
        1.8976555793415173e-07,
        -1.2062061072182217e-10
      ],
      "type": "VEC3"
    },
    {
      "bufferView": 3,
      "componentType": 5126,
      "count": 8,
      "max": [
        1.073477505997289e-06,
        -2.035049328696914e-05,
        1.0,
        1.0
      ],
      "min": [
        -2.442939461833049e-10,
        -0.0002732329594437033,
        1.0,
        1.0
      ],
      "type": "VEC4"
    },
    {
      "bufferView": 1,
      "componentType": 5126,
      "count": 8,
      "max": [
        0.5461832880973816,
        0.8465675711631775
      ],
      "min": [
        0.4753902554512024,
        0.6106867790222168
      ],
      "type": "VEC2"
    },
    {
      "bufferView": 0,
      "componentType": 5125,
      "count": 18,
      "type": "SCALAR"
    },
    {
      "bufferView": 2,
      "byteOffset": 192,
      "componentType": 5126,
      "count": 28,
      "max": [
        -487.45245361328125,
        67.84329223632813,
        -77.22361755371094
      ],
      "min": [
        -491.3983459472656,
        -122.13471984863281,
        -134.05514526367188
      ],
      "type": "VEC3"
    },
    {
      "bufferView": 2,
      "byteOffset": 528,
      "componentType": 5126,
      "count": 28,
      "max": [
        1.0,
        1.0,
        1.0
      ],
      "min": [
        -0.0030620971228927374,
        -0.9999995827674866,
        -0.9999999403953552
      ],
      "type": "VEC3"
    },
    {
      "bufferView": 1,
      "byteOffset": 64,
      "componentType": 5126,
      "count": 28,
      "max": [
        0.9971664547920227,
        0.9155350923538208
      ],
      "min": [
        0.8428579568862915,
        0.44509226083755493
      ],
      "type": "VEC2"
    },
    {
      "bufferView": 0,
      "byteOffset": 72,
      "componentType": 5125,
      "count": 54,
      "type": "SCALAR"
    },
    {
      "bufferView": 2,
      "byteOffset": 864,
      "componentType": 5126,
      "count": 38,
      "max": [
        -92.13328552246094,
        67.85833740234375,
        33.939945220947266
      ],
      "min": [
        -491.39837646484375,
        -122.13472747802734,
        -190.9272918701172
      ],
      "type": "VEC3"
    },
    {
      "bufferView": 2,
      "byteOffset": 1320,
      "componentType": 5126,
      "count": 38,
      "max": [
        1.0,
        1.0,
        0.9999999403953552
      ],
      "min": [
        -2.6094899112649728e-06,
        -1.0,
        -0.0009194927988573909
      ],
      "type": "VEC3"
    },
    {
      "bufferView": 1,
      "byteOffset": 288,
      "componentType": 5126,
      "count": 38,
      "max": [
        0.8327487707138062,
        0.9963902831077576
      ],
      "min": [
        0.00656920438632369,
        0.007114238105714321
      ],
      "type": "VEC2"
    },
    {
      "bufferView": 0,
      "byteOffset": 288,
      "componentType": 5125,
      "count": 72,
      "type": "SCALAR"
    },
    {
      "bufferView": 2,
      "byteOffset": 1776,
      "componentType": 5126,
      "count": 8,
      "max": [
        -491.3982238769531,
        67.85833740234375,
        -20.595975875854492
      ],
      "min": [
        -491.3982849121094,
        -122.08260345458984,
        -77.22590637207031
      ],
      "type": "VEC3"
    },
    {
      "bufferView": 2,
      "byteOffset": 1872,
      "componentType": 5126,
      "count": 8,
      "max": [
        -1.0,
        7.328312108256796e-07,
        4.507982680479472e-07
      ],
      "min": [
        -1.0,
        0.0,
        -1.203134120109084e-10
      ],
      "type": "VEC3"
    },
    {
      "bufferView": 3,
      "byteOffset": 128,
      "componentType": 5126,
      "count": 8,
      "max": [
        4.5079048049956327e-07,
        -2.02303308469709e-05,
        1.0,
        1.0
      ],
      "min": [
        -2.482527516889377e-10,
        -0.0002826579730026424,
        1.0,
        1.0
      ],
      "type": "VEC4"
    },
    {
      "bufferView": 1,
      "byteOffset": 592,
      "componentType": 5126,
      "count": 8,
      "max": [
        0.6166118383407593,
        0.8466067910194397
      ],
      "min": [
        0.5461774468421936,
        0.6107531785964966
      ],
      "type": "VEC2"
    },
    {
      "bufferView": 0,
      "byteOffset": 576,
      "componentType": 5125,
      "count": 18,
      "type": "SCALAR"
    },
    {
      "bufferView": 2,
      "byteOffset": 1968,
      "componentType": 5126,
      "count": 54,
      "max": [
        -487.4524841308594,
        67.85833740234375,
        -20.595975875854492
      ],
      "min": [
        -491.3982849121094,
        -122.08260345458984,
        -77.22590637207031
      ],
      "type": "VEC3"
    },
    {
      "bufferView": 2,
      "byteOffset": 2616,
      "componentType": 5126,
      "count": 54,
      "max": [
        1.0,
        1.0,
        0.9999996423721313
      ],
      "min": [
        -3.321449639770435e-06,
        -0.9999995827674866,
        -1.0
      ],
      "type": "VEC3"
    },
    {
      "bufferView": 1,
      "byteOffset": 656,
      "componentType": 5126,
      "count": 54,
      "max": [
        0.9962331652641296,
        0.9164228439331055
      ],
      "min": [
        0.8427100777626038,
        0.44526877999305725
      ],
      "type": "VEC2"
    },
    {
      "bufferView": 0,
      "byteOffset": 648,
      "componentType": 5125,
      "count": 54,
      "type": "SCALAR"
    },
    {
      "bufferView": 2,
      "byteOffset": 3264,
      "componentType": 5126,
      "count": 3871,
      "max": [
        152.052978515625,
        96.08323669433594,
        61.18491744995117
      ],
      "min": [
        -521.246826171875,
        -170.0166015625,
        -215.9735565185547
      ],
      "type": "VEC3"
    },
    {
      "bufferView": 2,
      "byteOffset": 49716,
      "componentType": 5126,
      "count": 3871,
      "max": [
        1.0,
        1.0,
        1.0
      ],
      "min": [
        -1.0,
        -1.0,
        -1.0
      ],
      "type": "VEC3"
    },
    {
      "bufferView": 3,
      "byteOffset": 256,
      "componentType": 5126,
      "count": 3871,
      "max": [
        1.0,
        1.0,
        1.0,
        1.0
      ],
      "min": [
        -1.0,
        -1.0,
        -1.0,
        -1.0
      ],
      "type": "VEC4"
    },
    {
      "bufferView": 1,
      "byteOffset": 1088,
      "componentType": 5126,
      "count": 3871,
      "max": [
        0.9993902444839478,
        0.9989182949066162
      ],
      "min": [
        0.002381649799644947,
        0.0032341915648430586
      ],
      "type": "VEC2"
    },
    {
      "bufferView": 0,
      "byteOffset": 864,
      "componentType": 5125,
      "count": 11991,
      "type": "SCALAR"
    },
    {
      "bufferView": 2,
      "byteOffset": 96168,
      "componentType": 5126,
      "count": 4,
      "max": [
        322.24798583984375,
        454.6498718261719,
        0.0
      ],
      "min": [
        -322.24798583984375,
        -454.6498718261719,
        0.0
      ],
      "type": "VEC3"
    },
    {
      "bufferView": 2,
      "byteOffset": 96216,
      "componentType": 5126,
      "count": 4,
      "max": [
        0.0,
        0.0,
        1.0
      ],
      "min": [
        0.0,
        0.0,
        1.0
      ],
      "type": "VEC3"
    },
    {
      "bufferView": 1,
      "byteOffset": 32056,
      "componentType": 5126,
      "count": 4,
      "max": [
        1.0,
        1.0
      ],
      "min": [
        0.0,
        0.0
      ],
      "type": "VEC2"
    },
    {
      "bufferView": 0,
      "byteOffset": 48828,
      "componentType": 5125,
      "count": 6,
      "type": "SCALAR"
    }
  ],
  "asset": {
    "extras": {
      "author": "mk2design (https://sketchfab.com/mk2design)",
      "license": "CC-BY-4.0 (http://creativecommons.org/licenses/by/4.0/)",
      "source": "https://sketchfab.com/3d-models/free-ambulance-b78313c16c9d46a7a67643245cf278d2",
      "title": "*FREE* Ambulance"
    },
    "generator": "Sketchfab-15.25.0",
    "version": "2.0"
  },
  "bufferViews": [
    {
      "buffer": 0,
      "byteLength": 48852,
      "name": "floatBufferViews",
      "target": 34963
    },
    {
      "buffer": 0,
      "byteLength": 32088,
      "byteOffset": 48852,
      "byteStride": 8,
      "name": "floatBufferViews",
      "target": 34962
    },
    {
      "buffer": 0,
      "byteLength": 96264,
      "byteOffset": 80940,
      "byteStride": 12,
      "name": "floatBufferViews",
      "target": 34962
    },
    {
      "buffer": 0,
      "byteLength": 62192,
      "byteOffset": 177204,
      "byteStride": 16,
      "name": "floatBufferViews",
      "target": 34962
    }
  ],
  "buffers": [
    {
      "byteLength": 239396,
      "uri": "scene.bin"
    }
  ],
  "extensionsUsed": [
    "KHR_materials_specular"
  ],
  "images": [
    {
      "uri": "textures/Material_84_baseColor.png"
    },
    {
      "uri": "textures/Material_84_normal.png"
    },
    {
      "uri": "textures/Material_84_specularf0.png"
    },
    {
      "uri": "textures/material_baseColor.png"
    }
  ],
  "materials": [
    {
      "doubleSided": true,
      "extensions": {
        "KHR_materials_specular": {
          "specularColorFactor": [
            1.0,
            1.0,
            1.0
          ],
          "specularFactor": 1.0,
          "specularTexture": {
            "index": 2
          }
        }
      },
      "name": "Material_84",
      "normalTexture": {
        "index": 1
      },
      "pbrMetallicRoughness": {
        "baseColorTexture": {
          "index": 0
        },
        "metallicFactor": 0.6526775599982557,
        "roughnessFactor": 0.47289773180732864
      }
    },
    {
      "doubleSided": true,
      "name": "Material_243",
      "pbrMetallicRoughness": {
        "baseColorFactor": [
          0.0,
          0.0,
          0.0,
          1.0
        ],
        "metallicFactor": 0.0,
        "roughnessFactor": 0.8929713596497552
      }
    },
    {
      "alphaMode": "BLEND",
      "extensions": {
        "KHR_materials_specular": {
          "specularColorFactor": [
            1.0,
            1.0,
            1.0
          ],
          "specularFactor": 0.0
        }
      },
      "name": "material",
      "pbrMetallicRoughness": {
        "baseColorFactor": [
          0.0,
          0.0,
          0.0,
          1.0
        ],
        "baseColorTexture": {
          "index": 3
        },
        "metallicFactor": 0.0,
        "roughnessFactor": 0.0
      }
    }
  ],
  "meshes": [
    {
      "name": "Object002_Material #84_0",
      "primitives": [
        {
          "attributes": {
            "NORMAL": 1,
            "POSITION": 0,
            "TANGENT": 2,
            "TEXCOORD_0": 3
          },
          "indices": 4,
          "material": 0,
          "mode": 4
        }
      ]
    },
    {
      "name": "Object002_Material #243_0",
      "primitives": [
        {
          "attributes": {
            "NORMAL": 6,
            "POSITION": 5,
            "TEXCOORD_0": 7
          },
          "indices": 8,
          "material": 1,
          "mode": 4
        }
      ]
    },
    {
      "name": "Object003_Material #243_0",
      "primitives": [
        {
          "attributes": {
            "NORMAL": 10,
            "POSITION": 9,
            "TEXCOORD_0": 11
          },
          "indices": 12,
          "material": 1,
          "mode": 4
        }
      ]
    },
    {
      "name": "Object006_Material #84_0",
      "primitives": [
        {
          "attributes": {
            "NORMAL": 14,
            "POSITION": 13,
            "TANGENT": 15,
            "TEXCOORD_0": 16
          },
          "indices": 17,
          "material": 0,
          "mode": 4
        }
      ]
    },
    {
      "name": "Object006_Material #243_0",
      "primitives": [
        {
          "attributes": {
            "NORMAL": 19,
            "POSITION": 18,
            "TEXCOORD_0": 20
          },
          "indices": 21,
          "material": 1,
          "mode": 4
        }
      ]
    },
    {
      "name": "amulans_Material #84_0",
      "primitives": [
        {
          "attributes": {
            "NORMAL": 23,
            "POSITION": 22,
            "TANGENT": 24,
            "TEXCOORD_0": 25
          },
          "indices": 26,
          "material": 0,
          "mode": 4
        }
      ]
    },
    {
      "name": "shd_SHD_0",
      "primitives": [
        {
          "attributes": {
            "NORMAL": 28,
            "POSITION": 27,
            "TEXCOORD_0": 29
          },
          "indices": 30,
          "material": 2,
          "mode": 4
        }
      ]
    }
  ],
  "nodes": [
    {
      "children": [
        1
      ],
      "matrix": [
        1.0,
        0.0,
        0.0,
        0.0,
        0.0,
        2.220446049250313e-16,
        -1.0,
        0.0,
        0.0,
        1.0,
        2.220446049250313e-16,
        0.0,
        0.0,
        0.0,
        0.0,
        1.0
      ],
      "name": "Sketchfab_model"
    },
    {
      "children": [
        2
      ],
      "matrix": [
        0.009999999776482582,
        0.0,
        0.0,
        0.0,
        0.0,
        0.0,
        0.009999999776482582,
        0.0,
        0.0,
        -0.009999999776482582,
        0.0,
        0.0,
        0.0,
        0.0,
        0.0,
        1.0
      ],
      "name": "138b619c37ac408f877344c24e7b84bb.fbx"
    },
    {
      "children": [
        3,
        7,
        10,
        14,
        17
      ],
      "name": "RootNode"
    },
    {
      "children": [
        4
      ],
      "matrix": [
        1.6292068449885733e-07,
        -1.3234889800848443e-23,
        0.9999999999999867,
        0.0,
        -1.6292068488171135e-07,
        0.9999999999999867,
        2.6543149516178714e-14,
        0.0,
        -0.9999999999999734,
        -1.6292068488171352e-07,
        1.6292068449885733e-07,
        0.0,
        55.34797668457031,
        142.6363525390625,
        -304.40240478515625,
        1.0
      ],
      "name": "Object002"
    },
    {
      "children": [
        5,
        6
      ],
      "matrix": [
        1.0,
        0.0,
        -0.0,
        0.0,
        0.0,
        1.0,
        0.0,
        0.0,
        0.0,
        0.0,
        1.0,
        0.0,
        489.4254150390625,
        27.14571762084961,
        134.05514526367188,
        1.0
      ],
      "name": "Object_4"
    },
    {
      "mesh": 0,
      "name": "Object002_Material #84_0"
    },
    {
      "mesh": 1,
      "name": "Object002_Material #243_0"
    },
    {
      "children": [
        8
      ],
      "matrix": [
        1.6292068449885733e-07,
        -1.3234889800848443e-23,
        0.9999999999999867,
        0.0,
        -1.6292068488171135e-07,
        0.9999999999999867,
        2.6543149516178714e-14,
        0.0,
        -0.9999999999999734,
        -1.6292068488171352e-07,
        1.6292068449885733e-07,
        0.0,
        -1.3128888607025146,
        132.81536865234375,
        0.42609405517578125,
        1.0
      ],
      "name": "Object003"
    },
    {
      "children": [
        9
      ],
      "matrix": [
        1.0,
        0.0,
        -0.0,
        0.0,
        0.0,
        1.0,
        0.0,
        0.0,
        0.0,
        0.0,
        1.0,
        0.0,
        184.596923828125,
        36.96668243408203,
        77.39431762695313,
        1.0
      ],
      "name": "Object_8"
    },
    {
      "mesh": 2,
      "name": "Object003_Material #243_0"
    },
    {
      "children": [
        11
      ],
      "matrix": [
        1.6292068449885733e-07,
        -1.3234889800848443e-23,
        0.9999999999999867,
        0.0,
        -1.6292068488171135e-07,
        0.9999999999999867,
        2.6543149516178714e-14,
        0.0,
        -0.9999999999999734,
        -1.6292068488171352e-07,
        1.6292068449885733e-07,
        0.0,
        -58.11119842529297,
        142.669921875,
        -304.40240478515625,
        1.0
      ],
      "name": "Object006"
    },
    {
      "children": [
        12,
        13
      ],
      "matrix": [
        1.0,
        0.0,
        -0.0,
        0.0,
        0.0,
        1.0,
        0.0,
        0.0,
        0.0,
        0.0,
        1.0,
        0.0,
        489.4254150390625,
        27.11212921142578,
        20.595962524414063,
        1.0
      ],
      "name": "Object_11"
    },
    {
      "mesh": 3,
      "name": "Object006_Material #84_0"
    },
    {
      "mesh": 4,
      "name": "Object006_Material #243_0"
    },
    {
      "children": [
        15
      ],
      "matrix": [
        1.6292068449885733e-07,
        -1.3234889800848443e-23,
        0.9999999999999867,
        0.0,
        -1.6292068488171135e-07,
        0.9999999999999867,
        2.6543149516178714e-14,
        0.0,
        -0.9999999999999734,
        -1.6292068488171352e-07,
        1.6292068449885733e-07,
        0.0,
        -1.3128888607025146,
        132.81536865234375,
        0.42609405517578125,
        1.0
      ],
      "name": "amulans"
    },
    {
      "children": [
        16
      ],
      "matrix": [
        1.0,
        0.0,
        -0.0,
        0.0,
        0.0,
        1.0,
        0.0,
        0.0,
        0.0,
        0.0,
        1.0,
        0.0,
        184.596923828125,
        36.96668243408203,
        77.39431762695313,
        1.0
      ],
      "name": "Object_15"
    },
    {
      "mesh": 5,
      "name": "amulans_Material #84_0"
    },
    {
      "children": [
        18
      ],
      "matrix": [
        1.1533169746398926,
        0.0,
        0.0,
        0.0,
        0.0,
        2.560878119872473e-16,
        -1.1533169746398926,
        0.0,
        0.0,
        1.1533169746398926,
        2.560878119872473e-16,
        0.0,
        1.3172760009765625,
        0.0,
        28.916866302490234,
        1.0
      ],
      "name": "shd"
    },
    {
      "mesh": 6,
      "name": "shd_SHD_0"
    }
  ],
  "samplers": [
    {
      "magFilter": 9729,
      "minFilter": 9987,
      "wrapS": 10497,
      "wrapT": 10497
    }
  ],
  "scene": 0,
  "scenes": [
    {
      "name": "Sketchfab_Scene",
      "nodes": [
        0
      ]
    }
  ],
  "textures": [
    {
      "sampler": 0,
      "source": 0
    },
    {
      "sampler": 0,
      "source": 1
    },
    {
      "sampler": 0,
      "source": 2
    },
    {
      "sampler": 0,
      "source": 3
    }
  ]
}
